<svg width="24" height="24" viewBox="0 0 24 24" fill="none" xmlns="http://www.w3.org/2000/svg">
<g clip-path="url(#clip0_246_544)">
<path d="M21.3333 12C21.3333 9.4 20.4276 7.19422 18.616 5.38267C16.8044 3.57111 14.5991 2.66578 12 2.66667V0C13.6667 0 15.228 0.316889 16.684 0.950667C18.14 1.58444 19.4067 2.43956 20.484 3.516C21.5613 4.59422 22.4169 5.86089 23.0507 7.316C23.6844 8.77111 24.0009 10.3324 24 12H21.3333ZM16 12C16 10.8889 15.6111 9.94444 14.8333 9.16667C14.0556 8.38889 13.1111 8 12 8V5.33333C13.8444 5.33333 15.4169 5.98356 16.7173 7.284C18.0178 8.58444 18.6676 10.1564 18.6667 12H16ZM22.6 24C19.7333 24 16.9387 23.3609 14.216 22.0827C11.4933 20.8044 9.08222 19.1156 6.98267 17.016C4.88311 14.9164 3.19422 12.5053 1.916 9.78267C0.637778 7.06 -0.000887962 4.26578 9.2657e-07 1.4C9.2657e-07 1 0.133334 0.666667 0.400001 0.4C0.666667 0.133333 1 0 1.4 0H6.8C7.11111 0 7.38889 0.0999999 7.63333 0.3C7.87778 0.5 8.02222 0.755556 8.06667 1.06667L8.93333 5.73333C8.97778 6.04445 8.972 6.328 8.916 6.584C8.86 6.84 8.73244 7.06756 8.53333 7.26667L5.3 10.5333C6.23333 12.1333 7.40578 13.6333 8.81733 15.0333C10.2289 16.4333 11.7787 17.6444 13.4667 18.6667L16.6 15.5333C16.8 15.3333 17.0613 15.1831 17.384 15.0827C17.7067 14.9822 18.0231 14.9547 18.3333 15L22.9333 15.9333C23.2444 16 23.5 16.1502 23.7 16.384C23.9 16.6178 24 16.8898 24 17.2V22.6C24 23 23.8667 23.3333 23.6 23.6C23.3333 23.8667 23 24 22.6 24ZM4.03333 8L6.23333 5.8L5.66667 2.66667H2.7C2.81111 3.57778 2.96667 4.47778 3.16667 5.36667C3.36667 6.25556 3.65556 7.13333 4.03333 8ZM15.9667 19.9333C16.8333 20.3111 17.7169 20.6111 18.6173 20.8333C19.5178 21.0556 20.4231 21.2 21.3333 21.2667V18.3333L18.2 17.7L15.9667 19.9333Z" fill="#29ABE2"/>
</g>
<defs>
<clipPath id="clip0_246_544">
<rect width="24" height="24" fill="white"/>
</clipPath>
</defs>
</svg>
