<svg width="24" height="24" viewBox="0 0 24 24" fill="none" xmlns="http://www.w3.org/2000/svg">
<path d="M12 24C10.36 24 8.81 23.6848 7.35 23.0544C5.89 22.424 4.6148 21.564 3.5244 20.4744C2.4348 19.3848 1.5748 18.11 0.944401 16.65C0.314001 15.19 -0.000798479 13.64 1.52091e-06 12C1.52091e-06 10.34 0.315202 8.7848 0.945602 7.3344C1.576 5.884 2.436 4.6144 3.5256 3.5256C4.6152 2.4352 5.8896 1.5752 7.3488 0.9456C8.808 0.316 10.3584 0.0008 12 0C13.66 0 15.2152 0.3152 16.6656 0.9456C18.116 1.576 19.3856 2.436 20.4744 3.5256C21.5648 4.6152 22.4248 5.8852 23.0544 7.3356C23.684 8.786 23.9992 10.3408 24 12V13.74C24 14.92 23.5952 15.9252 22.7856 16.7556C21.976 17.586 20.9808 18.0008 19.8 18C19.08 18 18.41 17.84 17.79 17.52C17.17 17.2 16.66 16.78 16.26 16.26C15.72 16.8 15.0848 17.2252 14.3544 17.5356C13.624 17.846 12.8392 18.0008 12 18C10.34 18 8.9248 17.4148 7.7544 16.2444C6.584 15.074 5.9992 13.6592 6 12C6 10.34 6.5852 8.9248 7.7556 7.7544C8.926 6.584 10.3408 5.9992 12 6C13.66 6 15.0752 6.5852 16.2456 7.7556C17.416 8.926 18.0008 10.3408 18 12V13.74C18 14.32 18.18 14.7748 18.54 15.1044C18.9 15.434 19.32 15.5992 19.8 15.6C20.28 15.6 20.7 15.4348 21.06 15.1044C21.42 14.774 21.6 14.3192 21.6 13.74V12C21.6 9.38 20.6548 7.1248 18.7644 5.2344C16.874 3.344 14.6192 2.3992 12 2.4C9.38 2.4 7.1248 3.3452 5.2344 5.2356C3.344 7.126 2.3992 9.3808 2.4 12C2.4 14.62 3.3452 16.8752 5.2356 18.7656C7.126 20.656 9.3808 21.6008 12 21.6H16.8C17.14 21.6 17.4252 21.7152 17.6556 21.9456C17.886 22.176 18.0008 22.4608 18 22.8C18 23.14 17.8848 23.4252 17.6544 23.6556C17.424 23.886 17.1392 24.0008 16.8 24H12ZM12 15.6C13 15.6 13.85 15.25 14.55 14.55C15.25 13.85 15.6 13 15.6 12C15.6 11 15.25 10.15 14.55 9.45C13.85 8.75 13 8.4 12 8.4C11 8.4 10.15 8.75 9.45 9.45C8.75 10.15 8.4 11 8.4 12C8.4 13 8.75 13.85 9.45 14.55C10.15 15.25 11 15.6 12 15.6Z" fill="#29ABE2"/>
</svg>
