<svg width="20" height="20" viewBox="0 0 20 20" fill="none" xmlns="http://www.w3.org/2000/svg">
<path d="M13.9183 11.2028H8.51684C8.3506 11.2028 8.21676 11.3366 8.21676 11.5029C8.21676 11.6691 8.3506 11.803 8.51684 11.803H13.9183C14.0846 11.803 14.2184 11.6691 14.2184 11.5029C14.2184 11.3366 14.0846 11.2028 13.9183 11.2028ZM11.2176 12.4031C11.8778 12.4031 12.4179 12.9433 12.4179 13.6035C12.4179 14.2636 11.8778 14.8038 11.2176 14.8038C10.5574 14.8038 10.0173 14.2636 10.0173 13.6035C10.0173 12.9433 10.5574 12.4031 11.2176 12.4031ZM11.2176 13.0033C10.8827 13.0033 10.6174 13.2686 10.6174 13.6035C10.6174 13.9384 10.8827 14.2036 11.2176 14.2036C11.5525 14.2036 11.8178 13.9384 11.8178 13.6035C11.8178 13.2686 11.5525 13.0033 11.2176 13.0033ZM11.2176 8.20198C11.8778 8.20198 12.4179 8.74213 12.4179 9.40231C12.4179 10.0625 11.8778 10.6026 11.2176 10.6026C10.5574 10.6026 10.0173 10.0625 10.0173 9.40231C10.0173 8.74213 10.5574 8.20198 11.2176 8.20198ZM11.2176 8.80214C10.8827 8.80214 10.6174 9.06742 10.6174 9.40231C10.6174 9.7372 10.8827 10.0025 11.2176 10.0025C11.5525 10.0025 11.8178 9.7372 11.8178 9.40231C11.8178 9.06742 11.5525 8.80214 11.2176 8.80214ZM4.01561 2.80049C4.67579 2.80049 5.21594 3.34064 5.21594 4.00082C5.21594 4.66101 4.67579 5.20115 4.01561 5.20115C3.35542 5.20115 2.81528 4.66101 2.81528 4.00082C2.81528 3.34064 3.35542 2.80049 4.01561 2.80049ZM4.01561 3.40066C3.68071 3.40066 3.41544 3.66593 3.41544 4.00082C3.41544 4.33572 3.68071 4.60099 4.01561 4.60099C4.3505 4.60099 4.61577 4.33572 4.61577 4.00082C4.61577 3.66593 4.3505 3.40066 4.01561 3.40066ZM18.7521 10.4046C19.1044 10.7527 19.102 11.33 18.7521 11.6793L11.6941 18.7373C11.346 19.0866 10.7687 19.0896 10.42 18.7373L1.70197 9.91245C1.55373 9.76241 1.38268 9.62437 1.24104 9.39871C1.1 9.17305 1.01538 8.87656 1.01538 8.47205V1.90025C1.01538 1.40631 1.42229 1 1.91563 1H8.51744C9.21243 1 9.61214 1.3745 9.92783 1.68719L18.7521 10.4046ZM18.3301 10.8319L9.50712 2.11391C9.18723 1.79822 9.02218 1.60016 8.51684 1.60016H1.91503C1.74398 1.60016 1.61495 1.7286 1.61495 1.90025V8.47325C1.61495 8.80154 1.67076 8.95639 1.74938 9.08122C1.8274 9.20726 1.95584 9.31769 2.12749 9.49173L10.8479 18.3142C10.9661 18.4342 11.148 18.4342 11.2698 18.313L18.3277 11.255C18.4496 11.1332 18.4508 10.9507 18.3301 10.8319Z" fill="#29ABE2" stroke="#29ABE2" stroke-width="0.896"/>
</svg>
