<svg width="29" height="28" viewBox="0 0 29 28" fill="none" xmlns="http://www.w3.org/2000/svg">
<path d="M22.6167 25L15.2667 17.65C14.6833 18.1167 14.0125 18.4861 13.2542 18.7583C12.4958 19.0306 11.6889 19.1667 10.8333 19.1667C8.71389 19.1667 6.92033 18.4324 5.45267 16.964C3.985 15.4956 3.25078 13.702 3.25 11.5833C3.25 9.46389 3.98422 7.67033 5.45267 6.20267C6.92111 4.735 8.71467 4.00078 10.8333 4C12.9528 4 14.7463 4.73422 16.214 6.20267C17.6817 7.67111 18.4159 9.46467 18.4167 11.5833C18.4167 12.4389 18.2806 13.2458 18.0083 14.0042C17.7361 14.7625 17.3667 15.4333 16.9 16.0167L24.25 23.3667L22.6167 25ZM10.8333 16.8333C12.2917 16.8333 13.5314 16.3227 14.5527 15.3015C15.5739 14.2803 16.0841 13.0409 16.0833 11.5833C16.0833 10.125 15.5727 8.88522 14.5515 7.864C13.5303 6.84278 12.2909 6.33256 10.8333 6.33333C9.375 6.33333 8.13522 6.84394 7.114 7.86517C6.09278 8.88639 5.58256 10.1258 5.58333 11.5833C5.58333 13.0417 6.09394 14.2814 7.11517 15.3027C8.13639 16.3239 9.37578 16.8341 10.8333 16.8333Z" fill="#29ABE2"/>
</svg>
