<svg width="16" height="17" viewBox="0 0 16 17" fill="none" xmlns="http://www.w3.org/2000/svg">
<g clip-path="url(#clip0_243_818)">
<mask id="mask0_243_818" style="mask-type:luminance" maskUnits="userSpaceOnUse" x="0" y="0" width="16" height="17">
<path d="M16 0.5H0V16.5H16V0.5Z" fill="white"/>
</mask>
<g mask="url(#mask0_243_818)">
<path d="M16 8.49955C16 8.1192 15.7983 7.7726 15.4595 7.5716L14.5686 7.04745C14.9118 6.84365 15.2176 6.66188 15.4602 6.51754C15.7983 6.31582 16 5.96922 16 5.5903C16 5.21138 15.7983 4.86478 15.4602 4.66269C14.3466 4.00037 10.5703 1.75626 8.7088 0.689114C8.27769 0.441579 7.75354 0.431659 7.28762 0.691262C7.28762 0.691262 2.22512 3.66481 0.540444 4.66238C0.201716 4.86335 0 5.20995 0 5.5903C0 5.96922 0.201716 6.31582 0.539762 6.51792C0.782319 6.66215 1.08811 6.84389 1.43124 7.04759L0.540478 7.5716C0.201716 7.7726 0 8.1192 0 8.49955C0 8.87847 0.201716 9.22508 0.539762 9.42717C0.782319 9.57141 1.08811 9.75314 1.43124 9.95684L0.540478 10.4808C0.201716 10.6819 0 11.0285 0 11.4088C0 11.7878 0.201716 12.1344 0.539762 12.3364C1.98082 13.1934 5.52273 15.2961 7.2912 16.31C7.50781 16.4343 7.75357 16.5 8.00002 16.5C8.24646 16.5 8.49222 16.4343 8.70955 16.3096C10.4773 15.2961 14.0192 13.1934 15.4603 12.3361C15.7984 12.1344 16 11.7878 16 11.4088C16 11.0285 15.7983 10.6819 15.4596 10.4808L14.5686 9.9567C14.9119 9.75291 15.2177 9.57113 15.4603 9.42679C15.7983 9.22508 16 8.87847 16 8.49955ZM0.911932 5.89381C0.856535 5.86044 0.727262 5.76454 0.727262 5.59091C0.727262 5.41654 0.855819 5.32139 0.911217 5.2887C2.59374 4.29225 7.64844 1.32348 7.64844 1.32348C7.87998 1.19315 8.1328 1.19813 8.3473 1.32099C10.2038 2.38528 13.9766 4.62675 15.0881 5.28798C15.1435 5.32136 15.2727 5.41726 15.2727 5.59088C15.2727 5.76451 15.1435 5.8604 15.0881 5.89344C13.6492 6.74926 10.1115 8.84977 8.34802 9.86043C8.12926 9.98544 7.87003 9.98507 7.6527 9.86077C5.88849 8.84977 2.35084 6.74929 0.911932 5.89381ZM15.0888 11.1069C15.1442 11.1396 15.2727 11.2347 15.2727 11.4091C15.2727 11.5828 15.1435 11.6786 15.0881 11.7117C13.6492 12.5675 10.1115 14.668 8.34802 15.6787C8.12926 15.8037 7.87003 15.8033 7.6527 15.679C5.88849 14.668 2.35084 12.5675 0.911932 11.712C0.856535 11.6786 0.727262 11.5827 0.727262 11.4091C0.727262 11.2347 0.855819 11.1396 0.911217 11.1069L2.14527 10.3807C3.81328 11.3694 6.01357 12.6685 7.2912 13.4009C7.50781 13.5252 7.75357 13.5909 8.00002 13.5909C8.24646 13.5909 8.49222 13.5252 8.70955 13.4006C9.98663 12.6684 12.1867 11.3695 13.8547 10.3807L15.0888 11.1069ZM15.0881 8.80255C13.6492 9.65837 10.1115 11.7589 8.34802 12.7696C8.12926 12.8946 7.87003 12.8942 7.6527 12.7699C5.88849 11.7589 2.35084 9.65837 0.911932 8.80289C0.856535 8.76952 0.727262 8.67362 0.727262 8.5C0.727262 8.32562 0.855819 8.23047 0.911217 8.19778L2.14527 7.47161C3.81328 8.46028 6.01357 9.75935 7.2912 10.4918C7.50781 10.6161 7.75357 10.6818 8.00002 10.6818C8.24646 10.6818 8.49222 10.6161 8.70955 10.4914C9.98663 9.75925 12.1867 8.46038 13.8547 7.47158L15.0888 8.19778C15.1442 8.23044 15.2728 8.32562 15.2728 8.5C15.2727 8.67362 15.1435 8.76952 15.0881 8.80255Z" fill="#0D1E25"/>
</g>
</g>
<defs>
<clipPath id="clip0_243_818">
<rect width="16" height="16" fill="white" transform="translate(0 0.5)"/>
</clipPath>
</defs>
</svg>
