<svg width="17" height="17" viewBox="0 0 17 17" fill="none" xmlns="http://www.w3.org/2000/svg">
<path d="M9.58934 10.5984C12.5825 10.5984 15 8.22581 15 5.29922C15 2.37721 12.5728 0 9.58934 0H4.14255C3.86171 0 3.63403 0.222992 3.63403 0.498047V7.46848H2.50851C2.22768 7.46848 2 7.69147 2 7.96653V10.1004C2 10.3754 2.22768 10.5984 2.50851 10.5984H3.63403V11.7362H2.50851C2.22768 11.7362 2 11.9592 2 12.2343V14.3681C2 14.6432 2.22768 14.8662 2.50851 14.8662H3.63403V16.502C3.63403 16.777 3.86171 17 4.14255 17H6.32128C6.60211 17 6.8298 16.777 6.8298 16.502V14.8661H10.134C10.4148 14.8661 10.6425 14.6431 10.6425 14.3681V12.2342C10.6425 11.9592 10.4148 11.7362 10.134 11.7362H6.82975V10.5984H9.58934ZM6.82975 3.12996H9.58931C10.8105 3.12996 11.8042 4.10311 11.8042 5.29922C11.8042 6.49533 10.8105 7.46848 9.58931 7.46848H6.82975V3.12996Z" fill="#0D1E25"/>
</svg>
