<svg width="150" height="159" viewBox="0 0 150 159" fill="none" xmlns="http://www.w3.org/2000/svg">
<circle cx="75" cy="84" r="72.5" stroke="#29ABE2" stroke-width="5" stroke-dasharray="10 10"/>
<circle cx="123.5" cy="26.5" r="26.5" fill="#29ABE2"/>
<path d="M123.07 16.8H126.19V35H122.602V20.596L119.17 21.558L118.286 18.49L123.07 16.8Z" fill="#F4F8FF"/>
<path d="M107 60.09V54.87L101.796 54.29C101.507 54.29 99.7725 54 96.8815 54C85.0284 54 76.3555 57.48 71.4408 63.57C67.6825 61.25 62.4787 59.8 56.4076 59.8C53.5166 59.8 51.4929 60.09 51.4929 60.09L46 60.96L46.2891 65.89C46.5782 74.59 50.9147 91.12 65.9479 91.12H66.5261V100.98C55.5403 102.43 46.2891 106.2 46.2891 106.2V112H104.109V106.2C104.109 106.2 94.8578 102.43 83.872 100.98V91.7C102.085 91.41 107 70.82 107 60.09ZM75.1991 100.4H72.3081V84.16C72.3081 84.16 71.7299 74.3 63.6351 74.3C63.6351 74.3 67.9716 76.62 69.128 85.03C67.9716 85.32 66.8152 85.32 65.9479 85.32C52.6493 85.32 52.0711 65.89 52.0711 65.89C52.0711 65.89 53.8057 65.6 56.4076 65.6C61.9005 65.6 70.8626 66.76 73.4645 74.59C74.91 61.54 89.654 59.8 96.8815 59.8C99.4834 59.8 101.218 60.09 101.218 60.09C101.218 60.09 101.218 86.19 83.0047 86.19H80.981C80.981 80.39 86.763 71.69 86.763 71.69C78.09 74.59 78.09 85.9 78.09 85.9V100.4H75.1991Z" fill="#29ABE2"/>
</svg>
