<svg width="150" height="159" viewBox="0 0 150 159" fill="none" xmlns="http://www.w3.org/2000/svg">
<circle cx="75" cy="84" r="72.5" stroke="#29ABE2" stroke-width="5" stroke-dasharray="10 10"/>
<circle cx="123.5" cy="26.5" r="26.5" fill="#29ABE2"/>
<path d="M127.178 24.184C128.409 24.548 129.405 25.1893 130.168 26.108C130.948 27.0093 131.338 28.1013 131.338 29.384C131.338 31.256 130.705 32.7207 129.44 33.778C128.192 34.8353 126.658 35.364 124.838 35.364C123.417 35.364 122.143 35.0433 121.016 34.402C119.907 33.7433 119.101 32.7813 118.598 31.516L121.666 29.748C122.117 31.152 123.174 31.854 124.838 31.854C125.757 31.854 126.467 31.6373 126.97 31.204C127.49 30.7533 127.75 30.1467 127.75 29.384C127.75 28.6387 127.49 28.0407 126.97 27.59C126.467 27.1393 125.757 26.914 124.838 26.914H124.058L122.68 24.834L126.268 20.154H119.144V16.8H130.584V19.764L127.178 24.184Z" fill="#F4F8FF"/>
<path d="M98 95.8V63.4C98 61.9678 97.4381 60.5943 96.4379 59.5816C95.4377 58.5689 94.0812 58 92.6667 58H55.3333C53.9188 58 52.5623 58.5689 51.5621 59.5816C50.5619 60.5943 50 61.9678 50 63.4V106.6C50 108.032 50.5619 109.406 51.5621 110.418C52.5623 111.431 53.9188 112 55.3333 112H79.3333" stroke="#29ABE2" stroke-width="5" stroke-linecap="round" stroke-linejoin="round"/>
<path d="M50 74.375H71.4737V69M98.3158 74.375H76.8421V69M84.8947 106.625L90.2632 112L101 101.25" stroke="#29ABE2" stroke-width="5" stroke-linecap="round" stroke-linejoin="round"/>
</svg>
