<svg width="150" height="159" viewBox="0 0 150 159" fill="none" xmlns="http://www.w3.org/2000/svg">
<circle cx="75" cy="84" r="72.5" stroke="#29ABE2" stroke-width="5" stroke-dasharray="10 10"/>
<circle cx="123.5" cy="26.5" r="26.5" fill="#29ABE2"/>
<path d="M118.702 35V32.322L124.916 25.926C126.303 24.47 126.996 23.2567 126.996 22.286C126.996 21.5753 126.771 21.0033 126.32 20.57C125.887 20.1367 125.323 19.92 124.63 19.92C123.261 19.92 122.247 20.6307 121.588 22.052L118.572 20.284C119.144 19.036 119.967 18.0827 121.042 17.424C122.117 16.7653 123.295 16.436 124.578 16.436C126.225 16.436 127.637 16.956 128.816 17.996C129.995 19.0187 130.584 20.4053 130.584 22.156C130.584 24.0453 129.587 25.9867 127.594 27.98L124.032 31.542H130.87V35H118.702Z" fill="#F4F8FF"/>
<path d="M83.1429 48H58.1429C56.2485 48 54.4316 48.7525 53.0921 50.0921C51.7525 51.4316 51 53.2485 51 55.1429V105.143C51 107.037 51.7525 108.854 53.0921 110.194C54.4316 111.533 56.2485 112.286 58.1429 112.286H68.8571V123L76 119.429L83.1429 123V112.286H93.8571C95.7515 112.286 97.5684 111.533 98.9079 110.194C100.247 108.854 101 107.037 101 105.143V65.8571M83.1429 94.4286V101.571L76 98L68.8571 101.571V94.4286L61.7143 90.8571L68.8571 87.2857V80.1429L76 83.7143L83.1429 80.1429V87.2857L90.2857 90.8571M79.5714 69.4286V53.3571L95.6429 69.4286H79.5714Z" fill="#29ABE2"/>
</svg>
