<svg width="150" height="159" viewBox="0 0 150 159" fill="none" xmlns="http://www.w3.org/2000/svg">
<circle cx="75" cy="84" r="72.5" stroke="#29ABE2" stroke-width="5" stroke-dasharray="10 10"/>
<circle cx="123.5" cy="26.5" r="26.5" fill="#29ABE2"/>
<path d="M132.716 28.578V31.906H130.766V35H127.152V31.906H118.546V28.578L124.604 16.8H128.452L122.42 28.578H127.152V24.262H130.766V28.578H132.716Z" fill="#F4F8FF"/>
<path d="M102.811 56.4822L75.712 47.1689C75.3851 47.0563 74.9464 47 74.5078 47C74.0692 47 73.6305 47.0563 73.3036 47.1689L46.2042 56.4822C45.5423 56.7074 45 57.4795 45 58.1873V96.9848C45 97.6925 45.4546 98.6255 46.0049 99.0678L73.495 120.67C73.7741 120.887 74.133 121 74.4998 121C74.8667 121 75.2335 120.887 75.5047 120.67L102.995 99.0678C103.545 98.6335 104 97.7006 104 96.9848V58.1873C104.016 57.4795 103.473 56.7155 102.811 56.4822ZM89.0623 70.219L72.1073 93.7597C71.9881 93.9242 71.8321 94.0581 71.6519 94.1503C71.4718 94.2426 71.2726 94.2907 71.0705 94.2907C70.8685 94.2907 70.6693 94.2426 70.4891 94.1503C70.309 94.0581 70.153 93.9242 70.0338 93.7597L59.9533 79.7656C59.6502 79.3393 59.9533 78.7442 60.4717 78.7442H64.8739C65.2806 78.7442 65.6714 78.9452 65.9107 79.275L71.0705 86.4329L83.1049 69.7204C83.3442 69.3906 83.727 69.1895 84.1417 69.1895H88.544C89.0623 69.1976 89.3654 69.7927 89.0623 70.219Z" fill="#29ABE2"/>
</svg>
