<svg width="25" height="24" viewBox="0 0 25 24" fill="none" xmlns="http://www.w3.org/2000/svg">
<path d="M19.75 12C19.75 10.05 19.0707 8.39567 17.712 7.037C16.3533 5.67833 14.6993 4.99933 12.75 5V3C14 3 15.171 3.23767 16.263 3.713C17.355 4.18833 18.305 4.82967 19.113 5.637C19.921 6.44567 20.5627 7.39567 21.038 8.487C21.5133 9.57833 21.7507 10.7493 21.75 12H19.75ZM15.75 12C15.75 11.1667 15.4583 10.4583 14.875 9.875C14.2917 9.29167 13.5833 9 12.75 9V7C14.1333 7 15.3127 7.48767 16.288 8.463C17.2633 9.43833 17.7507 10.6173 17.75 12H15.75ZM20.7 21C18.55 21 16.454 20.5207 14.412 19.562C12.37 18.6033 10.5617 17.3367 8.987 15.762C7.41233 14.1873 6.14567 12.379 5.187 10.337C4.22833 8.295 3.74933 6.19933 3.75 4.05C3.75 3.75 3.85 3.5 4.05 3.3C4.25 3.1 4.5 3 4.8 3H8.85C9.08333 3 9.29167 3.075 9.475 3.225C9.65833 3.375 9.76667 3.56667 9.8 3.8L10.45 7.3C10.4833 7.53333 10.479 7.746 10.437 7.938C10.395 8.13 10.2993 8.30067 10.15 8.45L7.725 10.9C8.425 12.1 9.30433 13.225 10.363 14.275C11.4217 15.325 12.584 16.2333 13.85 17L16.2 14.65C16.35 14.5 16.546 14.3873 16.788 14.312C17.03 14.2367 17.2673 14.216 17.5 14.25L20.95 14.95C21.1833 15 21.375 15.1127 21.525 15.288C21.675 15.4633 21.75 15.6673 21.75 15.9V19.95C21.75 20.25 21.65 20.5 21.45 20.7C21.25 20.9 21 21 20.7 21ZM6.775 9L8.425 7.35L8 5H5.775C5.85833 5.68333 5.975 6.35833 6.125 7.025C6.275 7.69167 6.49167 8.35 6.775 9ZM15.725 17.95C16.375 18.2333 17.0377 18.4583 17.713 18.625C18.3883 18.7917 19.0673 18.9 19.75 18.95V16.75L17.4 16.275L15.725 17.95Z" fill="#29ABE2"/>
</svg>
