<svg width="16" height="17" viewBox="0 0 16 17" fill="none" xmlns="http://www.w3.org/2000/svg">
<mask id="mask0_243_796" style="mask-type:luminance" maskUnits="userSpaceOnUse" x="0" y="0" width="16" height="17">
<path d="M16 0.5H0V16.5H16V0.5Z" fill="white"/>
</mask>
<g mask="url(#mask0_243_796)">
<path d="M5.50001 8.5C6.87701 8.5 8 7.6012 8 6.50007C8 5.3988 6.88035 4.5 5.50001 4.5C4.11966 4.5 3 5.3988 3 6.50007C3 7.6012 4.12299 8.5 5.50001 8.5ZM5.50001 5.2104C6.5026 5.2104 7.33152 5.80019 7.33152 6.49993C7.33152 7.19982 6.49259 7.78948 5.50001 7.78948C4.50729 7.78948 3.66836 7.19982 3.66836 6.49993C3.66836 5.80019 4.50729 5.20686 5.50001 5.20686V5.2104Z" fill="#0D1E25"/>
<path d="M15.6784 9.87912H10.9324V6.51282C10.9324 4.30107 8.48553 2.5 5.46626 2.5C2.44689 2.5 0 4.30107 0 6.51282V10.4902C0 12.5274 2.07396 14.2089 4.74597 14.4643H4.80068C5.02246 14.4838 5.24757 14.5 5.4759 14.5H15.6784C15.8559 14.5 16 14.3551 16 14.1766V10.2024C16 10.024 15.8559 9.87912 15.6784 9.87912ZM5.48232 3.14987C8.13495 3.14987 10.3054 4.65997 10.3054 6.51617C10.3054 8.37225 8.14791 9.88235 5.48232 9.88235C2.81674 9.88235 0.659172 8.37225 0.659172 6.51605C0.659172 4.65997 2.83279 3.14987 5.48232 3.14987ZM10.3054 8.40131V9.87912H8.44046C9.16843 9.54733 9.80352 9.03965 10.2893 8.40131H10.3054ZM15.3569 13.8532H14.7137V12.2169C14.7137 12.0385 14.5696 11.8935 14.3923 11.8935C14.2148 11.8935 14.0707 12.0384 14.0707 12.2169V13.8564H12.7844V12.9672C12.7844 12.7886 12.6404 12.6438 12.463 12.6438C12.2854 12.6438 12.1414 12.7886 12.1414 12.9672V13.8564H10.8552V12.9672C10.8552 12.7886 10.7112 12.6438 10.5337 12.6438C10.3562 12.6438 10.2121 12.7886 10.2121 12.9672V13.8564H8.92589V12.2169C8.92589 12.0385 8.78185 11.8935 8.60433 11.8935C8.42692 11.8935 8.28277 12.0384 8.28277 12.2169V13.8564H7.05136V12.9672C7.05136 12.7886 6.9072 12.6438 6.7298 12.6438C6.55228 12.6438 6.40823 12.7886 6.40823 12.9672V13.8564H5.48209C5.35996 13.8564 5.24104 13.8564 5.122 13.8564V12.9672C5.122 12.7886 4.97797 12.6438 4.80045 12.6438C4.62293 12.6438 4.47888 12.7886 4.47888 12.9672V13.7788C2.30871 13.4555 0.675227 12.1037 0.675227 10.487V8.40131C1.59483 9.66565 3.40515 10.5258 5.49838 10.5258H15.3569V13.8532Z" fill="#0D1E25"/>
</g>
</svg>
